<svg xmlns="http://www.w3.org/2000/svg" width="32.162" height="32.162" viewBox="0 0 32.162 32.162"><g transform="translate(0.081 0.081)"><g transform="translate(0.919 0.919)"><circle cx="4" cy="4" r="4" transform="translate(11.081 11.081)" fill="none" stroke="#4f84c9" stroke-linecap="round" stroke-linejoin="round" stroke-width="2"/><path d="M26.226,20.194a2.262,2.262,0,0,0,.452,2.5l.082.082a2.743,2.743,0,1,1-3.88,3.88l-.082-.082a2.28,2.28,0,0,0-3.866,1.618v.233a2.742,2.742,0,0,1-5.484,0V28.3a2.262,2.262,0,0,0-1.481-2.07,2.262,2.262,0,0,0-2.5.452l-.082.082a2.743,2.743,0,1,1-3.88-3.88l.082-.082a2.28,2.28,0,0,0-1.618-3.866H3.742a2.742,2.742,0,1,1,0-5.484h.123a2.262,2.262,0,0,0,2.07-1.481,2.262,2.262,0,0,0-.452-2.5L5.4,9.39a2.743,2.743,0,1,1,3.88-3.88l.082.082a2.262,2.262,0,0,0,2.5.452h.11a2.262,2.262,0,0,0,1.371-2.07V3.742a2.742,2.742,0,0,1,5.484,0v.123a2.28,2.28,0,0,0,3.866,1.618l.082-.082a2.743,2.743,0,1,1,3.88,3.88l-.082.082a2.262,2.262,0,0,0-.452,2.5v.11a2.262,2.262,0,0,0,2.07,1.371h.233a2.742,2.742,0,1,1,0,5.484H28.3A2.262,2.262,0,0,0,26.226,20.194Z" transform="translate(-1 -1)" fill="none" stroke="#4f84c9" stroke-linecap="round" stroke-linejoin="round" stroke-width="2"/></g><rect width="32" height="32" fill="none"/></g></svg>